<?xml version="1.0" encoding="UTF-8" standalone="no"?>
<!DOCTYPE svg PUBLIC "-//W3C//DTD SVG 1.1//EN" "http://www.w3.org/Graphics/SVG/1.1/DTD/svg11.dtd">
<svg width="100%" height="100%" viewBox="0 0 12 16" version="1.1" xmlns="http://www.w3.org/2000/svg" xmlns:xlink="http://www.w3.org/1999/xlink" xml:space="preserve" xmlns:serif="http://www.serif.com/" style="fill-rule:evenodd;clip-rule:evenodd;stroke-linejoin:round;stroke-miterlimit:2;">
    <g id="Page-1">
        <g id="rain">
            <path id="Combined-Shape" d="M4,0.991C4,0.444 4.444,0 5,0C5.552,0 6,0.451 6,0.991L6,5.009C6,5.556 5.556,6 5,6C4.448,6 4,5.549 4,5.009L4,0.991ZM10,8.991C10,8.444 10.444,8 11,8C11.552,8 12,8.451 12,8.991L12,13.009C12,13.556 11.556,14 11,14C10.448,14 10,13.549 10,13.009L10,8.991Z" style="fill:rgb(239,239,239);"/>
        </g>
    </g>
</svg>
